<?xml version="1.0" standalone="no"?>
<!DOCTYPE svg PUBLIC "-//W3C//DTD SVG 20010904//EN"
 "http://www.w3.org/TR/2001/REC-SVG-20010904/DTD/svg10.dtd">
<svg version="1.0" xmlns="http://www.w3.org/2000/svg"
 width="219.000000pt" height="230.000000pt" viewBox="0 0 219.000000 230.000000"
 preserveAspectRatio="xMidYMid meet">
<metadata>
Created by potrace 1.16, written by Peter Selinger 2001-2019
</metadata>
<g transform="translate(0.000000,230.000000) scale(0.100000,-0.100000)"
fill="#000000" stroke="none">
<path d="M978 2190 c-263 -33 -505 -166 -671 -370 -82 -102 -166 -267 -198
-390 -27 -108 -37 -300 -19 -408 68 -428 383 -758 806 -847 104 -22 294 -22
398 0 423 89 738 419 806 847 18 108 8 300 -19 408 -64 248 -243 490 -462 621
-187 112 -433 165 -641 139z m349 -116 c281 -70 526 -288 632 -564 46 -119 64
-235 58 -375 -9 -201 -67 -364 -187 -523 -116 -155 -268 -261 -470 -328 -81
-27 -94 -28 -265 -28 -171 0 -184 1 -265 28 -262 87 -456 254 -569 489 -113
233 -120 522 -21 760 45 108 118 216 203 300 235 235 559 323 884 241z"/>
<path d="M927 1412 l-247 -247 258 -258 c141 -141 262 -256 267 -256 6 1 36
29 67 63 l57 62 -194 194 -195 195 182 182 183 183 -65 65 -65 65 -248 -248z"/>
</g>
</svg>
